<svg xmlns="http://www.w3.org/2000/svg" viewBox="0 0 28 28" id="svg12227816494"><path d="M 23 8.375 L 23 19.625 C 23 21.489 21.489 23 19.625 23 L 8.375 23 C 6.511 23 5 21.489 5 19.625 L 5 8.375 C 5 6.511 6.511 5 8.375 5 L 19.625 5 C 21.489 5 23 6.511 23 8.375 Z M 19.164 14.69 L 19.394 12.59 L 17.481 12.59 L 17.483 11.411 C 17.483 10.851 17.535 10.551 18.34 10.551 L 19.559 10.551 L 19.559 8.459 L 17.465 8.459 C 15.4 8.459 14.67 9.501 14.67 11.254 L 14.67 12.594 L 13.578 12.594 L 13.578 14.694 L 14.67 14.694 L 14.67 20.928 L 17.484 20.928 L 17.484 14.694 L 19.168 14.694 Z" fill="currentColor"/></svg>