<svg xmlns="http://www.w3.org/2000/svg" viewBox="0 0 28 28" id="svg8768931041"><g transform="translate(5.6 5.6)"><path d="M 0 0 L 16.8 0 L 16.8 16.8 L 0 16.8 Z" fill="transparent"/><path d="M 14.268 14.268 L 11.787 14.268 L 11.787 10.382 C 11.787 9.456 11.77 8.263 10.497 8.263 C 9.204 8.263 9.007 9.273 9.007 10.315 L 9.007 14.268 L 6.525 14.268 L 6.525 6.278 L 8.907 6.278 L 8.907 7.369 L 8.94 7.369 C 9.426 6.539 10.329 6.043 11.29 6.079 C 13.805 6.079 14.269 7.733 14.269 9.885 Z M 3.725 5.185 C 2.93 5.185 2.285 4.54 2.285 3.745 C 2.285 2.95 2.93 2.305 3.725 2.305 C 4.52 2.305 5.165 2.95 5.165 3.745 C 5.165 4.54 4.52 5.185 3.725 5.185 Z M 4.965 14.268 L 2.483 14.268 L 2.483 6.278 L 4.967 6.278 L 4.967 14.268 Z M 15.505 0.001 L 1.235 0.001 C 0.561 -0.006 0.008 0.534 0 1.208 L 0 15.537 C 0.008 16.211 0.561 16.752 1.235 16.745 L 15.505 16.745 C 16.181 16.753 16.736 16.213 16.745 15.537 L 16.745 1.207 C 16.735 0.532 16.18 -0.008 15.505 0" fill="var(--token-8056d279-4388-496c-b0ab-8ec93edb0b33, rgb(12, 19, 27)) /* {&quot;name&quot;:&quot;text color&quot;} */"/></g></svg>