<svg xmlns="http://www.w3.org/2000/svg" viewBox="0 0 28 28" id="svg10442046945"><g transform="translate(5.6 5.6)"><path d="M 0 0 L 16.8 0 L 16.8 16.8 L 0 16.8 Z" fill="transparent"/><path d="M 4.92 0.059 C 4.027 0.101 3.417 0.244 2.883 0.453 C 2.323 0.665 1.816 0.997 1.397 1.425 C 0.971 1.845 0.641 2.353 0.431 2.914 C 0.224 3.448 0.084 4.059 0.044 4.954 C 0.005 5.848 -0.004 6.135 0.001 8.416 C 0.005 10.697 0.015 10.983 0.058 11.879 C 0.101 12.773 0.243 13.383 0.453 13.917 C 0.668 14.469 0.957 14.937 1.424 15.403 C 1.845 15.83 2.353 16.159 2.914 16.369 C 3.449 16.575 4.06 16.716 4.954 16.755 C 5.848 16.795 6.136 16.803 8.416 16.799 C 10.696 16.795 10.984 16.785 11.88 16.742 C 12.775 16.7 13.383 16.556 13.916 16.348 C 14.476 16.136 14.983 15.804 15.402 15.376 C 15.868 14.908 16.155 14.44 16.368 13.886 C 16.575 13.352 16.716 12.741 16.754 11.848 C 16.794 10.951 16.803 10.665 16.798 8.384 C 16.794 6.104 16.784 5.817 16.741 4.921 C 16.699 4.026 16.557 3.417 16.347 2.883 C 16.135 2.323 15.804 1.816 15.376 1.397 C 14.956 0.97 14.447 0.641 13.886 0.432 C 13.351 0.225 12.741 0.084 11.846 0.045 C 10.953 0.007 10.665 -0.003 8.383 0.001 C 6.103 0.005 5.817 0.015 4.921 0.059 Z M 5.019 15.244 C 4.199 15.208 3.755 15.072 3.459 14.958 C 3.094 14.824 2.763 14.61 2.491 14.332 C 2.211 14.062 1.996 13.732 1.861 13.367 C 1.746 13.071 1.608 12.627 1.569 11.807 C 1.528 10.923 1.519 10.657 1.514 8.414 C 1.509 6.172 1.518 5.906 1.557 5.021 C 1.592 4.202 1.729 3.757 1.842 3.461 C 1.976 3.096 2.191 2.765 2.469 2.494 C 2.762 2.198 3.042 2.017 3.434 1.864 C 3.73 1.748 4.174 1.61 4.992 1.572 C 5.878 1.53 6.144 1.522 8.386 1.516 C 10.628 1.511 10.894 1.52 11.781 1.559 C 12.599 1.594 13.044 1.729 13.341 1.844 C 13.733 1.996 14.012 2.177 14.307 2.471 C 14.603 2.764 14.784 3.043 14.937 3.436 C 15.053 3.731 15.191 4.176 15.23 4.994 C 15.272 5.88 15.281 6.146 15.285 8.388 C 15.289 10.63 15.281 10.896 15.243 11.781 C 15.207 12.601 15.071 13.045 14.957 13.342 C 14.823 13.707 14.609 14.038 14.33 14.309 C 14.06 14.589 13.73 14.804 13.365 14.939 C 13.07 15.054 12.625 15.192 11.807 15.231 C 10.921 15.273 10.656 15.281 8.413 15.287 C 6.169 15.291 5.905 15.282 5.019 15.244 Z M 11.867 3.911 C 11.856 4.279 12.047 4.623 12.363 4.809 C 12.68 4.996 13.074 4.995 13.39 4.807 C 13.706 4.619 13.895 4.274 13.882 3.907 C 13.864 3.363 13.417 2.932 12.873 2.933 C 12.328 2.934 11.883 3.367 11.867 3.911 Z M 4.087 8.408 C 4.067 9.964 4.886 11.411 6.232 12.193 C 7.577 12.976 9.24 12.973 10.582 12.185 C 11.925 11.398 12.739 9.948 12.712 8.392 C 12.672 6.036 10.748 4.148 8.392 4.152 C 6.035 4.157 4.119 6.052 4.087 8.408 Z M 5.6 8.405 C 5.571 7.387 6.097 6.434 6.973 5.915 C 7.849 5.397 8.938 5.395 9.816 5.91 C 10.694 6.425 11.223 7.376 11.198 8.394 C 11.161 9.911 9.922 11.122 8.405 11.125 C 6.887 11.128 5.644 9.922 5.6 8.405 Z" fill="var(--token-8056d279-4388-496c-b0ab-8ec93edb0b33, rgb(12, 19, 27)) /* {&quot;name&quot;:&quot;text color&quot;} */"/></g></svg>