<svg xmlns="http://www.w3.org/2000/svg" viewBox="0 0 19 15.994" overflow="visible" id="svg-945095742_1388"><g><path d="M 11.953 0.058 L 12.907 0.106 L 13.82 0.163 L 14.675 0.224 L 15.456 0.288 C 17.205 0.429 18.605 1.872 18.775 3.71 L 18.813 4.134 L 18.884 5.044 C 18.951 5.987 19 7.014 19 7.997 C 19 8.98 18.951 10.007 18.884 10.95 L 18.813 11.86 C 18.801 12.005 18.788 12.146 18.775 12.284 C 18.605 14.122 17.204 15.566 15.455 15.706 L 14.676 15.769 L 13.821 15.831 L 12.907 15.888 L 11.953 15.936 C 11.136 15.973 10.318 15.993 9.5 15.994 C 8.682 15.993 7.864 15.973 7.047 15.936 L 6.093 15.888 L 5.18 15.831 L 4.325 15.769 L 3.544 15.706 C 1.795 15.565 0.395 14.122 0.225 12.284 L 0.187 11.86 L 0.116 10.95 C 0.043 9.967 0.005 8.982 0 7.997 C 0 7.014 0.049 5.987 0.116 5.044 L 0.187 4.134 C 0.199 3.989 0.212 3.848 0.225 3.71 C 0.395 1.872 1.794 0.429 3.544 0.288 L 4.323 0.224 L 5.178 0.163 L 6.092 0.106 L 7.046 0.058 C 7.864 0.021 8.682 0.001 9.5 0 C 10.312 0 11.145 0.022 11.953 0.058 Z M 7.6 10.421 C 7.6 10.883 8.075 11.171 8.455 10.941 L 12.445 8.517 C 12.622 8.41 12.731 8.212 12.731 7.997 C 12.731 7.782 12.622 7.584 12.445 7.477 L 8.455 5.054 C 8.279 4.947 8.061 4.947 7.885 5.054 C 7.708 5.161 7.6 5.36 7.6 5.574 Z" fill="currentColor"/></g></svg>