<svg xmlns="http://www.w3.org/2000/svg" width="243" height="243" fill="none"><g fill="#898989" clip-path="url(#a)"><path d="M39.197 174.725c8.36 5.823 21.916 5.823 30.277 0 8.36-5.824 8.36-15.267 0-21.091-8.36-5.823-21.917-5.823-30.278 0-8.36 5.824-8.36 15.267 0 21.091zm86.777-79.087c12.542 8.735 32.875 8.735 45.417 0 12.541-8.736 12.541-22.9 0-31.635-12.542-8.736-32.875-8.736-45.417 0-12.541 8.736-12.541 22.899 0 31.635zm-46.065 39.543c10.45 7.28 27.395 7.28 37.847 0 10.451-7.279 10.451-19.082 0-26.362-10.452-7.279-27.396-7.279-37.847 0-10.452 7.28-10.452 19.083 0 26.362zm-67.206-5.272c6.27 4.368 16.438 4.368 22.708 0s6.27-11.449 0-15.818c-6.27-4.368-16.437-4.368-22.708 0-6.27 4.369-6.27 11.45 0 15.818zm67.206-79.087c10.45 7.28 27.395 7.28 37.847 0 10.451-7.28 10.451-19.083 0-26.362-10.452-7.28-27.396-7.28-37.847 0-10.452 7.28-10.452 19.082 0 26.362zM39.197 90.366c8.36 5.824 21.916 5.824 30.277 0 8.36-5.824 8.36-15.266 0-21.09s-21.917-5.824-30.278 0c-8.36 5.824-8.36 15.266 0 21.09zm40.712 129.175c10.45 7.279 27.395 7.279 37.847 0 10.451-7.28 10.451-19.083 0-26.363-10.452-7.279-27.396-7.279-37.847 0-10.452 7.28-10.452 19.083 0 26.363zm101.268-81.724c12.542 8.736 32.876 8.736 45.417 0 12.541-8.735 12.541-22.899 0-31.634-12.541-8.736-32.875-8.736-45.417 0-12.541 8.735-12.541 22.899 0 31.634zm-55.203 42.18c12.542 8.736 32.875 8.736 45.417 0 12.541-8.736 12.541-22.899 0-31.635-12.542-8.735-32.875-8.735-45.417 0-12.541 8.736-12.541 22.899 0 31.635z"/></g><defs><clipPath id="a"><path fill="#fff" d="M8 19h228v206H8z"/></clipPath></defs></svg>